<svg width="20" height="20" viewBox="0 0 20 20" fill="none" xmlns="http://www.w3.org/2000/svg">
<path fill-rule="evenodd" clip-rule="evenodd" d="M10.3335 0C6.4635 0 3.3335 3.13 3.3335 7C3.3335 12.25 10.3335 20 10.3335 20C10.3335 20 17.3335 12.25 17.3335 7C17.3335 3.13 14.2035 0 10.3335 0ZM5.3335 7C5.3335 4.24 7.5735 2 10.3335 2C13.0935 2 15.3335 4.24 15.3335 7C15.3335 9.88 12.4535 14.19 10.3335 16.88C8.2535 14.21 5.3335 9.85 5.3335 7ZM7.8335 7C7.8335 5.61929 8.95279 4.5 10.3335 4.5C11.2267 4.5 12.052 4.9765 12.4986 5.75C12.9451 6.5235 12.9451 7.4765 12.4986 8.25C12.052 9.0235 11.2267 9.5 10.3335 9.5C8.95279 9.5 7.8335 8.38071 7.8335 7Z" fill="#558B2F"/>
</svg>
